<?xml version="1.0" encoding="utf-8"?>
<!-- Generator: Adobe Illustrator 19.1.0, SVG Export Plug-In . SVG Version: 6.00 Build 0)  -->
<svg version="1.1" id="Layer_1" xmlns="http://www.w3.org/2000/svg" xmlns:xlink="http://www.w3.org/1999/xlink" x="0px" y="0px"
	 viewBox="0 0 50 50" style="enable-background:new 0 0 50 50;" xml:space="preserve">
<style type="text/css">
	.st0{fill:#3B5998;}
	.st1{fill:#FFFFFF;}
</style>
<g>
	<path class="st0" d="M49,25.3c0,13.2-10.7,23.9-23.9,23.9S1.2,38.5,1.2,25.3c0-13.2,10.7-23.9,23.9-23.9S49,12.1,49,25.3L49,25.3z
		 M49,25.3"/>
	<path class="st1" d="M31.1,26.2h-4.3v15.6h-6.5V26.2h-3.1v-5.5h3.1v-3.6c0-2.5,1.2-6.5,6.5-6.5l4.8,0V16h-3.5
		c-0.6,0-1.4,0.3-1.4,1.5v3.2h4.8L31.1,26.2z M31.1,26.2"/>
</g>
</svg>
