<?xml version="1.0" encoding="utf-8"?>
<!-- Generator: Adobe Illustrator 19.1.0, SVG Export Plug-In . SVG Version: 6.00 Build 0)  -->
<svg version="1.1" id="Layer_1" xmlns="http://www.w3.org/2000/svg" xmlns:xlink="http://www.w3.org/1999/xlink" x="0px" y="0px"
	 viewBox="75 -75 200 200" style="enable-background:new 75 -75 200 200;" xml:space="preserve">
<style type="text/css">
	.st0{clip-path:url(#SVGID_2_);fill:#C227B9;}
	.st1{fill:none;stroke:#C227B9;stroke-width:5;stroke-miterlimit:10;}
</style>
<g id="Fitness_Icon">
</g>
<g id="Focus">
	<g>
		<g>
			<g>
				<defs>
					<rect id="SVGID_1_" x="108.3" y="-32.7" width="129.1" height="139.8"/>
				</defs>
				<clipPath id="SVGID_2_">
					<use xlink:href="#SVGID_1_"  style="overflow:visible;"/>
				</clipPath>
				<path class="st0" d="M237.4-9.8c-0.9-5.1-3.2-9.8-6.7-13.6l0,0c-1.8-2-4.7-4.8-8.6-6.5H222c-3.8-1.8-7.9-2.7-12.1-2.7
					c-6.3,0-12.2,2-17.1,5.8l0,0c-4.2,3.3-7,8.1-7.4,8.7v0.1c-2.2,4.1-3.4,8.7-3.4,13.4c0,1,0,2,0.2,2.9c0.1,0.9,0.6,1.7,1.4,2.1
					c0.5,0.3,1,0.5,1.6,0.7c2.2,6.7,6.9,12,13,15c-2.6,1.3-4.9,3.1-6.9,5.2c-1,1.1-1,2.8,0.1,3.8c1.1,1,2.8,1,3.8-0.1
					c1-1,2-1.9,3.2-2.7c1.6,4.7,5.9,8.1,10.7,8.1h0.4c4.8,0,9-3.6,10.6-8.6c5.7,3.6,9.4,10,9.4,16.8v28.2l-24.7,16
					c-1.3,0.8-1.6,2.5-0.8,3.7c0.5,0.8,1.4,1.2,2.3,1.2c0.5,0,1-0.1,1.5-0.4l25.9-16.8c0.8-0.5,1.2-1.4,1.2-2.3V38.6
					c0-9.6-5.4-18.2-13.8-22.5c8-4,13.7-12.1,14.2-21.5c0.8-0.7,1.4-1.5,2-2.4C237.4-8.5,237.5-9.2,237.4-9.8L237.4-9.8z
					 M209.3,24.8h-0.4c-3.2,0-6-3.1-6-6.9v-0.1c2.1,0.6,4.3,0.8,6.6,0.8c1.9,0,3.8-0.2,5.6-0.6C214.8,21.7,212.2,24.8,209.3,24.8
					L209.3,24.8z M209.4,13.2c-8.2,0-15.4-4.9-18.6-12.2c3.8-1.1,6.6-4.3,7.2-8.2c1.6,0.2,3.3,0.3,4.9,0.3c5.5,0,10.8-1.2,15.6-3.4
					c1.2,4.2,5.1,7.3,9.7,7.3c0.3,0,0.7,0,1-0.1C227.4,6.3,219.2,13.2,209.4,13.2L209.4,13.2z M228.3-8.3c-2.6,0-4.7-2.1-4.7-4.7
					v-1.5c0-1-0.5-1.9-1.4-2.4s-1.9-0.4-2.8,0.1c-4.8,3-10.5,4.6-16.4,4.6c-2.3,0-4.7-0.2-6.9-0.7c-0.8-0.2-1.6,0-2.3,0.5
					c-0.6,0.5-1,1.3-1,2.1v1.6c0,2.6-2.1,4.7-4.7,4.7c-0.2,0-0.4,0-0.5,0h-0.1c-0.1,0-0.1,0-0.2,0c0-0.2,0-0.5,0-0.7
					c0-3.8,0.9-7.5,2.7-10.8l0,0c0,0,2.5-4.3,6-7.1l0,0c4-3.1,8.8-4.7,13.8-4.7c3.4,0,6.7,0.7,9.7,2.2c0.1,0,0.1,0.1,0.2,0.1
					c3,1.3,5.3,3.5,6.7,5.1c0,0,0,0,0,0.1c2.6,2.8,4.3,6.3,5.2,9.9C230.9-8.9,229.6-8.3,228.3-8.3L228.3-8.3z M186.4,61
					c6.1-3.6,10.3-10.3,10.3-17.9c0-3.4-0.8-6.7-2.3-9.5c-0.1-0.1-0.1-0.2-0.2-0.3c-3.5-6.5-10.4-10.9-18.3-10.9
					c-7.9,0-14.8,4.4-18.3,10.9c-0.1,0.1-0.1,0.2-0.2,0.3c-1.5,2.9-2.3,6.1-2.3,9.5c0,7.6,4.1,14.3,10.3,17.9
					c-7.6,3.9-12.4,11.7-12.4,20.4v9.9c0,0.9,0.5,1.8,1.3,2.3l20.2,12.9c0.4,0.3,0.9,0.4,1.5,0.4c0.5,0,1-0.1,1.4-0.4l20.3-12.8
					c0.8-0.5,1.3-1.4,1.3-2.3v-10C198.7,72.7,193.9,65,186.4,61L186.4,61z M175.8,27.8c4.7,0,8.9,2.1,11.8,5.5
					c-3.7,1-7.7,1.6-11.8,1.6c-4.1,0-8.1-0.5-11.8-1.6C166.9,29.9,171.1,27.8,175.8,27.8L175.8,27.8z M160.5,43.1
					c0-1.8,0.3-3.5,0.8-5c4.5,1.4,9.4,2.2,14.5,2.2s10-0.8,14.5-2.2c0.5,1.6,0.8,3.3,0.8,5c0,8.5-6.9,15.4-15.4,15.4
					S160.5,51.6,160.5,43.1L160.5,43.1z M180.7,63.3c-0.3,2.6-2.6,4.3-4.6,4.3h-0.3c-2.2,0-4.5-1.8-4.9-4.3c1.6,0.4,3.3,0.6,5,0.6
					C177.5,63.9,179.1,63.7,180.7,63.3L180.7,63.3z M175.9,100.9l-17.5-11.1v-8.4c0-6,3-11.4,7.9-14.6c1.7,3.9,5.7,6.3,9.5,6.3h0.3
					c4.1,0,7.7-2.7,9.3-6.4c4.9,3.2,8,8.7,8,14.7v8.4L175.9,100.9z M156.4,28.2c0.8-1.3,0.4-2.9-0.9-3.7c-0.8-0.5-1.7-1-2.6-1.4
					c3.3-1.7,6.3-4.2,8.7-7.2c1,0.3,2,0.5,3.1,0.5c5.2,0,9.4-4.2,9.4-9.4V0.3c0-8.6-3.3-16.7-9.2-22.8s-13.9-9.7-22.4-10l0,0
					c-0.7,0-1.4,0-2.1,0c-8.4,0-16.4,3.4-22.5,9.4c-6.2,6.2-9.6,14.4-9.6,23.2v6.7c0,5.2,4.2,9.4,9.4,9.4c1.1,0,2.1-0.2,3.1-0.5
					c2.6,3.4,5.9,6,9.7,7.7C122.2,28,117,36.5,117,45.9v22.2c0,0.9,0.5,1.8,1.2,2.3l24.6,16c0.5,0.3,1,0.4,1.5,0.4
					c0.9,0,1.8-0.4,2.3-1.2c0.8-1.3,0.5-2.9-0.8-3.7l-23.4-15.2V46c0-6.3,2.9-12,7.8-15.7c1.7,4.9,6,8.5,10.7,8.5h0.4
					c5.2,0,9.3-4.7,10.8-9.9c0.2,0.1,0.3,0.2,0.5,0.3C153.9,29.8,155.6,29.5,156.4,28.2L156.4,28.2z M124.5-9.7
					c-1.8,3-2.7,6.4-2.7,9.9v6.7c0,1.3-0.6,2.4-1.5,3.2c-0.1,0.1-0.2,0.1-0.2,0.2c-0.6,0.4-1.4,0.7-2.2,0.7c-2.2,0-4-1.8-4-4V0.3
					c0-15,11.8-27.1,26.8-27.5c0.6,0,1.1,0,1.8,0c14.8,0.6,26.4,12.7,26.4,27.5V7c0,2.2-1.8,4-4,4c-0.8,0-1.6-0.3-2.3-0.7
					c-0.1-0.1-0.1-0.1-0.2-0.2c-0.9-0.7-1.5-1.9-1.5-3.2V0.2c0-9.6-7.1-17.8-16.6-19.2c-0.7-0.1-1.5,0.1-2.1,0.6
					c-0.6,0.5-1,1.2-1,1.9c-0.1,1.9-0.5,3.8-1,5.6h-13.4C125.9-11,125-10.5,124.5-9.7L124.5-9.7z M141.4,33.3H141
					c-3.1,0-6.1-3.7-6.1-7.5c0-0.2,0-0.5-0.1-0.7c2.1,0.5,4.2,0.8,6.4,0.8c2.1,0,4.1-0.2,6.1-0.7C147.1,29.1,144.1,33.3,141.4,33.3
					L141.4,33.3z M141.2,20.4c-6.3,0-12.1-2.9-16-7.8c1.2-1.6,2-3.6,2-5.8V0.1c0-2,0.4-4,1.2-5.8h13.5c1.1,0,2.1-0.7,2.5-1.8
					c0.7-1.8,1.2-3.7,1.5-5.6c5.4,2,9.3,7.2,9.3,13.2v6.7c0,2.2,0.7,4.2,2,5.8C153.4,17.6,147.6,20.4,141.2,20.4L141.2,20.4z"/>
			</g>
		</g>
		<circle class="st1" cx="174" cy="25.7" r="88.5"/>
	</g>
</g>
</svg>
