<?xml version="1.0" encoding="utf-8"?>
<!-- Generator: Adobe Illustrator 19.1.0, SVG Export Plug-In . SVG Version: 6.00 Build 0)  -->
<svg version="1.1" id="Fitness_Icon" xmlns="http://www.w3.org/2000/svg" xmlns:xlink="http://www.w3.org/1999/xlink" x="0px"
	 y="0px" viewBox="75 -75 200 200" style="enable-background:new 75 -75 200 200;" xml:space="preserve">
<style type="text/css">
	.st0{fill:#C227B9;}
</style>
<g>
	<path class="st0" d="M174.8-65.8c-49.1,0-89,39.9-89,89s39.9,89,89,89s89-39.9,89-89S223.9-65.8,174.8-65.8L174.8-65.8z
		 M174.8,103.7c-44.4,0-80.5-36.1-80.5-80.5s36.1-80.5,80.5-80.5s80.5,36.1,80.5,80.5S219.2,103.7,174.8,103.7L174.8,103.7z"/>
	<rect x="150.4" y="14.7" class="st0" width="48.7" height="17"/>
	<path class="st0" d="M117.6,10v1.7c-0.6-0.4-1.3-0.7-2.1-0.7c-2.3,0-4.2,1.9-4.2,4.2v15.9c0,2.3,1.9,4.2,4.2,4.2
		c0.8,0,1.5-0.3,2.1-0.7v1.7c0,4.3,3.2,7.8,7.4,8.4V1.6C120.8,2.1,117.6,5.6,117.6,10L117.6,10z"/>
	<path class="st0" d="M234.1,11c-0.8,0-1.5,0.3-2.1,0.7V10c0-4.3-3.2-7.8-7.4-8.4v43.2c4.2-0.5,7.4-4,7.4-8.4v-1.7
		c0.6,0.4,1.3,0.7,2.1,0.7c2.3,0,4.2-1.9,4.2-4.2V15.3C238.4,12.9,236.5,11,234.1,11L234.1,11z"/>
	<path class="st0" d="M137.7-11.7c-4.7,0-8.5,3.8-8.5,8.5v53c0,4.7,3.8,8.5,8.5,8.5s8.5-3.8,8.5-8.5v-53
		C146.2-7.9,142.4-11.7,137.7-11.7L137.7-11.7z"/>
	<path class="st0" d="M211.9-11.7c-4.7,0-8.5,3.8-8.5,8.5v53c0,4.7,3.8,8.5,8.5,8.5s8.5-3.8,8.5-8.5v-53
		C220.4-7.9,216.6-11.7,211.9-11.7L211.9-11.7z"/>
</g>
</svg>
