<?xml version="1.0" encoding="utf-8"?>
<!-- Generator: Adobe Illustrator 19.1.0, SVG Export Plug-In . SVG Version: 6.00 Build 0)  -->
<svg version="1.1" id="Layer_1" xmlns="http://www.w3.org/2000/svg" xmlns:xlink="http://www.w3.org/1999/xlink" x="0px" y="0px"
	 viewBox="75 -75 200 200" style="enable-background:new 75 -75 200 200;" xml:space="preserve">
<style type="text/css">
	.st0{fill:#C227B9;}
</style>
<g id="Fitness_Icon">
</g>
<g id="Focus">
	<g>
		<path class="st0" d="M266.3,20.8h-19.1c-1.9-36.5-31.3-65.9-67.7-67.8v-19c0-2-1.7-3.7-3.7-3.7c-2,0-3.7,1.7-3.7,3.7v19.1
			c-36.5,1.8-65.9,31.2-67.8,67.7H85c-2,0-3.7,1.7-3.7,3.7s1.7,3.7,3.7,3.7h19.1c1.9,36.5,31.3,65.9,67.8,67.7v19.1
			c0,2,1.7,3.7,3.7,3.7c2,0,3.7-1.7,3.7-3.7V95.9c36.5-1.9,65.9-31.3,67.7-67.7h19.1c2,0,3.7-1.7,3.7-3.7
			C270,22.5,268.4,20.8,266.3,20.8L266.3,20.8z M175.7,88.6c-35.3,0-64.1-28.7-64.1-64.1s28.7-64.1,64.1-64.1s64.1,28.7,64.1,64.1
			S211.1,88.6,175.7,88.6L175.7,88.6z"/>
		<path class="st0" d="M175.7-15.8c-22.2,0-40.3,18-40.3,40.3s18,40.3,40.3,40.3s40.3-18,40.3-40.3S197.9-15.8,175.7-15.8
			L175.7-15.8z M208.2,20.8h-28.7V-8C194.5-6.3,206.5,5.7,208.2,20.8L208.2,20.8z M172-8v28.7h-28.8C144.9,5.7,156.9-6.3,172-8
			L172-8z M143.1,28.2h28.7V57C156.9,55.3,144.9,43.3,143.1,28.2L143.1,28.2z M179.4,57V28.2h28.7C206.5,43.3,194.5,55.3,179.4,57
			L179.4,57z"/>
		<path class="st0" d="M160.3-23.2c0.3,0,0.7,0,1.1-0.1c4.6-1.4,9.4-2,14.2-2c2,0,3.7-1.7,3.7-3.7s-1.7-3.7-3.7-3.7
			c-5.6,0-11.1,0.7-16.3,2.3c-2,0.6-3.1,2.7-2.6,4.7C157.2-24.3,158.7-23.2,160.3-23.2L160.3-23.2z"/>
		<path class="st0" d="M147.4-16.7c1.7-1.2,2.1-3.5,1-5.2c-1.2-1.7-3.5-2.1-5.2-1c-15.6,10.8-25,28.5-25,47.4c0,2,1.7,3.7,3.7,3.7
			s3.7-1.7,3.7-3.7C125.7,8.1,133.8-7.3,147.4-16.7L147.4-16.7z"/>
	</g>
</g>
</svg>
