<?xml version="1.0" encoding="utf-8"?>
<!-- Generator: Adobe Illustrator 19.1.0, SVG Export Plug-In . SVG Version: 6.00 Build 0)  -->
<svg version="1.1" xmlns="http://www.w3.org/2000/svg" xmlns:xlink="http://www.w3.org/1999/xlink" x="0px" y="0px"
	 viewBox="0 0 200 200" style="enable-background:new 0 0 200 200;" xml:space="preserve">
<style type="text/css">
	.st0{fill:#C227B9;}
</style>
<g id="Fitness_Icon">
</g>
<g id="Focus">
	<g>
		<path class="st0" d="M161.5,37.3C144.8,20.5,122.6,11.3,99,11.3s-45.9,9.2-62.6,25.9C19.7,54,10.5,76.2,10.5,99.8
			c0,23.5,9.1,45.7,25.7,62.4c1.2,1.2,3.1,1.2,4.3,0c1.2-1.2,1.2-3.1,0-4.3c-15.4-15.5-23.9-36.1-23.9-58
			c0-45.4,36.9-82.4,82.4-82.4s82.4,36.9,82.4,82.4s-36.9,82.4-82.4,82.4c-18.9,0-36.6-6.2-51.3-17.9c-1.3-1.1-3.3-0.8-4.3,0.5
			c-1.1,1.3-0.8,3.3,0.5,4.3c15.8,12.6,34.9,19.3,55.2,19.3c23.6,0,45.9-9.2,62.6-25.9s25.9-38.9,25.9-62.6S178.3,54,161.5,37.3z"/>
		<path class="st0" d="M147.1,67.5c-0.9-1.4-2.9-1.8-4.3-0.8c-1.4,0.9-1.8,2.9-0.8,4.3c2.1,3.1,3.8,6.4,5.2,9.9
			c0.5,1.2,1.6,1.9,2.9,1.9c0.4,0,0.8-0.1,1.1-0.2c1.6-0.6,2.4-2.4,1.7-4C151.4,74.7,149.4,71,147.1,67.5z"/>
		<path class="st0" d="M43.2,83.9C41.7,89.1,41,94.4,41,99.8c0,32,26,58,58,58c7.8,0,15.4-1.5,22.6-4.6c1.6-0.7,2.3-2.5,1.6-4
			c-0.7-1.6-2.5-2.3-4-1.6c-6.4,2.7-13.2,4.1-20.2,4.1c-28.6,0-51.8-23.2-51.8-51.8c0-4.8,0.7-9.6,2-14.3c0.5-1.6-0.5-3.3-2.1-3.8
			C45.4,81.3,43.7,82.3,43.2,83.9z"/>
		<path class="st0" d="M50.8,57.3c-1.7-0.3-3.3,0.8-3.6,2.4c-0.4,1.9-0.6,3.8-0.6,5.8c0,8.2,3.3,15.8,9.2,21.5
			c5.6,5.3,12.8,8.2,20.5,8.2c0.5,0,0.9,0,1.4,0c7.3-0.3,14.2-3.4,19.4-8.5c5-4.9,8.1-11.4,8.7-18.3c2.5,2.5,5.6,4.3,9.1,5.4
			c2.2,0.7,4.4,1,6.7,1c3.2,0,6.5-0.7,9.5-2.1c5.1-2.3,9.1-6.5,11.3-11.6c2.9-6.7,2.4-14.1-1.2-20.3c-1.8-3.1-4.6-4.3-6.6-5
			c-0.5-0.2-1.1-0.2-1.7-0.1l-0.2,0.1c-3.5,0.8-7.1-0.6-9.2-3.5c-0.3-0.5-0.8-0.9-1.4-1.1c-1.9-0.7-4.8-1.6-8.1-0.4
			c-6.4,2.3-11.4,7.2-13.7,13.6c-0.3,0.9-0.6,1.8-0.8,2.7c-1.2-1.6-2.7-3-4.2-4.3c-1-0.8-2.1-1.5-3.3-2c-3.5-1.5-7.6-1.1-11,1.1
			l-1.2,0.8c-2.3,1.5-5.3,1.5-7.5-0.1l-0.7-0.5c-4.2-2.9-9.8-2.8-13.8,0.1c-0.2,0.1-0.3,0.3-0.5,0.4c-2.6,2.1-4.8,4.7-6.5,7.6
			c-0.9,1.5-0.4,3.3,1,4.2c1.5,0.9,3.3,0.4,4.2-1c1.4-2.3,3.1-4.3,5.2-6c0.1-0.1,0.2-0.1,0.3-0.2c1.9-1.4,4.6-1.4,6.6,0l0.7,0.5
			c4.3,2.9,9.9,3,14.3,0.2l1.2-0.8c1.6-1.1,3.6-1.3,5.3-0.6c0.6,0.3,1.2,0.6,1.7,1c5.8,4.8,8.8,11.9,8.4,19.4
			C99.1,78.8,89.3,88.5,77.4,89c-6.5,0.3-12.7-2-17.4-6.5c-4.7-4.5-7.3-10.5-7.3-17c0-1.6,0.2-3.1,0.4-4.6
			C53.5,59.2,52.4,57.6,50.8,57.3z M106.2,46.5c1.7-4.6,5.3-8.3,10-9.9c0.4-0.1,0.8-0.2,1.3-0.2c0.5,0,1.1,0.1,1.8,0.3
			c3.4,4.2,8.9,6.2,14.2,5.2c1.3,0.5,2,1.1,2.5,2c2.6,4.6,2.9,10,0.9,14.8c-3.3,7.6-12.1,11.7-20,9.2c-4.4-1.4-7.9-4.4-9.9-8.4
			C104.9,55.4,104.6,50.8,106.2,46.5z"/>
		<path class="st0" d="M156.8,88.4c-6.1-3.6-13.6-3.3-19.4,0.5c-3.1-1.8-6.8-2.2-10.3-1.3c-3.6,0.9-6.5,3.2-8.4,6.4
			c-3.7,6.4-1.7,14.5,4.4,18.5c0,0.6-0.1,1.1-0.1,1.7c-0.3,5.4-0.6,11-6.4,20.9c-0.9,1.5-0.4,3.3,1.1,4.2l14,8.2
			c0.5,0.3,1,0.4,1.6,0.4c0.3,0,0.5,0,0.8-0.1c0.8-0.2,1.5-0.7,1.9-1.4c4.5-7.7,8.3-11.1,11.1-13.2c1.4-1,1.6-2.9,0.6-4.3
			c-1-1.4-2.9-1.6-4.3-0.6c-4.2,3.2-7.7,7-11.1,12.4l-8.8-5.2c5.1-9.6,5.5-15.8,5.8-20.9c1,0.1,2.1,0.1,3.1,0c1.5,2.3,3.6,4.2,6,5.6
			s5.1,2.2,7.8,2.5c1.1,2.7,3.2,5.1,5.8,6.6c2.2,1.3,4.6,1.9,6.9,1.9c4.7,0,9.4-2.4,11.9-6.8c3.8-6.5,1.7-14.9-4.8-18.7
			C166.3,98.7,162.9,92,156.8,88.4z M165.3,121.2c-2.1,3.6-6.8,4.9-10.4,2.7c-1.9-1.1-3.1-2.9-3.6-5c-0.3-1.4-1.6-2.4-3-2.4
			c-0.1,0-0.1,0-0.2,0c-2.4,0.1-4.7-0.4-6.8-1.7c-2.1-1.2-3.7-3-4.8-5.1c-0.7-1.3-2.2-2-3.7-1.6c-2.1,0.6-4.2,0.4-6.1-0.7
			c-3.6-2.1-4.9-6.8-2.7-10.4c1-1.8,2.7-3,4.7-3.5c2-0.5,4-0.2,5.8,0.8c0.4,0.2,0.7,0.5,1,0.7c1.2,1,2.8,0.9,4,0
			c4-3.4,9.7-4,14.2-1.3c4.5,2.6,6.9,7.9,5.8,13c-0.3,1.5,0.5,2.9,1.9,3.5c0.4,0.2,0.8,0.3,1.1,0.5h0
			C166.2,112.9,167.4,117.6,165.3,121.2z"/>
		<circle class="st0" cx="97.6" cy="126.2" r="3.1"/>
		<circle class="st0" cx="91.2" cy="113.9" r="3.1"/>
		<circle class="st0" cx="82.4" cy="125" r="3.1"/>
		<circle class="st0" cx="73.6" cy="129.3" r="3.1"/>
		<circle class="st0" cx="68.7" cy="118.2" r="3.1"/>
		<circle class="st0" cx="79.1" cy="112.7" r="3.1"/>
		<circle class="st0" cx="82.4" cy="101.6" r="3.1"/>
		<circle class="st0" cx="68.1" cy="107.2" r="3.1"/>
	</g>
</g>
</svg>
