<?xml version="1.0" encoding="utf-8"?>
<!-- Generator: Adobe Illustrator 19.1.0, SVG Export Plug-In . SVG Version: 6.00 Build 0)  -->
<svg version="1.1" xmlns="http://www.w3.org/2000/svg" xmlns:xlink="http://www.w3.org/1999/xlink" x="0px" y="0px"
	 viewBox="0 0 50 50" style="enable-background:new 0 0 50 50;" xml:space="preserve">
<style type="text/css">
	.st0{display:none;}
	.st1{display:inline;}
	.st2{fill:#3B5998;}
	.st3{fill:#FFFFFF;}
	.st4{fill:#DC4E41;}
</style>
<g id="Layer_1" class="st0">
	<g class="st1">
		<path class="st2" d="M49,25.3c0,13.2-10.7,23.9-23.9,23.9S1.2,38.5,1.2,25.3c0-13.2,10.7-23.9,23.9-23.9S49,12.1,49,25.3L49,25.3z
			 M49,25.3"/>
		<path class="st3" d="M31.1,26.2h-4.3v15.6h-6.5V26.2h-3.1v-5.5h3.1v-3.6c0-2.5,1.2-6.5,6.5-6.5l4.8,0V16h-3.5
			c-0.6,0-1.4,0.3-1.4,1.5v3.2h4.8L31.1,26.2z M31.1,26.2"/>
	</g>
</g>
<g id="Layer_2">
	<g>
		<path class="st4" d="M49,25.3c0,13.2-10.7,23.9-23.9,23.9S1.1,38.5,1.1,25.3C1.1,12,11.9,1.3,25.1,1.3S49,12,49,25.3L49,25.3z
			 M49,25.3"/>
		<path class="st4" d="M9.5,26.3c-0.1,4.1,2.8,8,6.7,9.3c3.7,1.2,8.2,0.3,10.6-2.8c1.8-2.2,2.2-5.1,2-7.9c-3.1,0-6.3,0-9.4,0
			c0,1.1,0,2.2,0,3.4c1.9,0.1,3.8,0,5.7,0.1c-0.5,1.6-1.6,3.1-3.2,3.7c-3.2,1.4-7.2-0.4-8.2-3.8c-1.2-3.2,0.8-7,4-8
			c2-0.7,4.1,0.1,5.8,1.1c0.9-0.8,1.7-1.7,2.5-2.6c-2-1.6-4.5-2.7-7.1-2.4C13.7,16.5,9.3,21.2,9.5,26.3L9.5,26.3z M9.5,26.3"/>
		<path class="st4" d="M34.9,22.1c0,0.9,0,1.9,0,2.8c-0.9,0-1.9,0-2.8,0v2.8c0.9,0,1.9,0,2.8,0c0,0.9,0,1.9,0,2.8c0.9,0,1.9,0,2.8,0
			c0-0.9,0-1.9,0-2.8c0.9,0,1.9,0,2.8,0v-2.8c-0.9,0-1.9,0-2.8,0c0-0.9,0-1.9,0-2.8C36.8,22.1,35.8,22.1,34.9,22.1L34.9,22.1z
			 M34.9,22.1"/>
		<path class="st3" d="M9.5,26.3c-0.2-5.1,4.3-9.8,9.4-9.9c2.6-0.2,5.1,0.8,7.1,2.4c-0.8,0.9-1.6,1.8-2.5,2.6
			c-1.7-1.1-3.8-1.9-5.8-1.1c-3.3,0.9-5.2,4.8-4,8c1,3.3,5.1,5.2,8.2,3.8c1.6-0.6,2.7-2.1,3.2-3.7c-1.9,0-3.8,0-5.7-0.1
			c0-1.1,0-2.2,0-3.4c3.1,0,6.3,0,9.4,0c0.2,2.7-0.2,5.7-2,7.9c-2.4,3.1-7,4.1-10.6,2.8C12.2,34.4,9.4,30.5,9.5,26.3L9.5,26.3z
			 M9.5,26.3"/>
		<path class="st3" d="M34.9,22.1h2.8c0,0.9,0,1.9,0,2.8c0.9,0,1.9,0,2.8,0v2.8c-0.9,0-1.9,0-2.8,0c0,0.9,0,1.9,0,2.8
			c-0.9,0-1.9,0-2.8,0c0-0.9,0-1.9,0-2.8c-0.9,0-1.9,0-2.8,0v-2.8c0.9,0,1.9,0,2.8,0C34.9,24,34.9,23,34.9,22.1L34.9,22.1z
			 M34.9,22.1"/>
	</g>
</g>
</svg>
