<?xml version="1.0" encoding="utf-8"?>
<!-- Generator: Adobe Illustrator 19.1.0, SVG Export Plug-In . SVG Version: 6.00 Build 0)  -->
<svg version="1.1" id="Layer_1" xmlns="http://www.w3.org/2000/svg" xmlns:xlink="http://www.w3.org/1999/xlink" x="0px" y="0px"
	 viewBox="151 -38 351 127" style="enable-background:new 151 -38 351 127;" xml:space="preserve">
<style type="text/css">
	.st0{fill:#FFFFFF;}
</style>
<g>
	<g>
		<path class="st0" d="M314.4-14.7c2.8,0,5,0.8,6.8,2.4c1.7,1.6,2.6,3.7,2.6,6.2c0,2.6-0.9,4.6-2.6,6.2c-1.8,1.6-4.1,2.4-6.9,2.4
			h-5.5v12.4h-5.7v-29.6H314.4z M313-2c1.5,0,2.7-0.3,3.6-1s1.3-1.7,1.3-3.1c0-2.7-1.8-4.1-5.3-4.1h-3.9V-2H313z"/>
		<path class="st0" d="M336.9-15.1c2.9,0,5.7,0.7,8.3,2.2v5.1c-3.1-1.9-5.8-2.8-8.2-2.8c-1.4,0-2.6,0.3-3.4,0.8
			c-0.8,0.6-1.2,1.3-1.2,2.2c0,1.1,0.8,2.1,2.3,3.1c0.4,0.3,2.1,1.1,4.9,2.4c2.4,1.1,4.2,2.4,5.3,3.8c1.1,1.4,1.6,3.1,1.6,5
			c0,2.5-0.9,4.6-2.7,6.2c-1.8,1.6-4.2,2.3-7.1,2.3c-1.9,0-3.5-0.2-4.9-0.6c-1.4-0.4-2.9-1.1-4.6-2.2V6.8c3.2,2.6,6.1,3.9,8.9,3.9
			c1.4,0,2.5-0.3,3.4-0.9c0.9-0.6,1.3-1.4,1.3-2.4c0-1.4-0.7-2.5-2.2-3.3c-1.2-0.7-2.8-1.5-4.8-2.4c-2.3-1.1-4.1-2.3-5.2-3.7
			c-1.2-1.4-1.7-3.1-1.7-4.9c0-2.5,0.9-4.5,2.8-5.9C331.4-14.4,333.8-15.1,336.9-15.1z"/>
		<path class="st0" d="M353.6-14.7l7.2,9.9l7.3-9.9h6.8L363.7,0.2v14.7H358V0.2l-11.3-14.9C346.7-14.7,353.6-14.7,353.6-14.7z"/>
		<path class="st0" d="M391.7-15.1c1.7,0,3.3,0.2,4.9,0.6c1.6,0.4,3.4,1,5.2,2v5.4c-1.8-1-3.5-1.8-5.1-2.3c-1.5-0.5-3.2-0.7-4.8-0.7
			c-2.1,0-4,0.4-5.7,1.3s-3,2.1-4,3.7c-0.9,1.6-1.4,3.3-1.4,5.3s0.5,3.8,1.4,5.3s2.2,2.8,3.9,3.6c1.7,0.9,3.6,1.3,5.7,1.3
			c1.6,0,3.2-0.2,4.7-0.7s3.3-1.3,5.6-2.5v5.4c-1.9,1-3.7,1.7-5.3,2.1c-1.6,0.4-3.5,0.6-5.6,0.6c-3.1,0-5.9-0.6-8.4-1.9
			c-2.5-1.2-4.4-3-5.8-5.4c-1.4-2.3-2.1-4.9-2.1-7.7c0-3,0.7-5.7,2.2-8c1.4-2.4,3.4-4.2,6-5.5C385.6-14.4,388.5-15.1,391.7-15.1z"/>
		<path class="st0" d="M413.3-14.7v12.5h15.4v-12.5h5.7v29.6h-5.7V2.4h-15.4v12.5h-5.7v-29.6H413.3z"/>
		<path class="st0" d="M460.1-14.7v4.5h-13.4v7.8h12.8V2h-12.8v8.4h13.7v4.5H441v-29.6H460.1z"/>
		<path class="st0" d="M478.2-14.7c3.1,0,5.8,0.6,8.2,1.9c2.4,1.3,4.3,3,5.6,5.3c1.3,2.3,2,4.8,2,7.7s-0.7,5.5-2,7.7s-3.2,4-5.7,5.2
			s-5.3,1.8-8.5,1.8h-12.1v-29.6H478.2z M477.6,10.4c3.2,0,5.7-1,7.6-2.9s2.9-4.4,2.9-7.5c0-3.2-1-5.7-2.9-7.6s-4.5-2.8-7.8-2.8
			h-5.9v20.7L477.6,10.4L477.6,10.4z"/>
		<path class="st0" d="M332.8,29.8v12.5h15.4V29.8h5.7v29.6h-5.7V46.9h-15.4v12.5h-5.7V29.8H332.8z"/>
		<path class="st0" d="M379.6,29.8v4.5h-13.4v7.8H379v4.5h-12.8V55h13.7v4.5h-19.4V29.8H379.6z"/>
		<path class="st0" d="M400.2,29.8l13.1,29.6h-6l-3.1-7.2H391l-2.9,7.2h-6l12.2-29.6H400.2z M392.8,47.9h9.6l-5-11.7L392.8,47.9z"/>
		<path class="st0" d="M422.5,29.8V55h14.4v4.5h-20.1V29.8H422.5z"/>
		<path class="st0" d="M461.5,29.8v4.5H451v25.1h-5.7V34.3h-10.5v-4.5H461.5z"/>
		<path class="st0" d="M471.5,29.8v12.5h15.4V29.8h5.7v29.6h-5.7V46.9h-15.4v12.5h-5.7V29.8H471.5z"/>
	</g>
	<g>
		<path class="st0" d="M196.2-20.1c0,0-1.2,3.1-0.2,5c0,0,1.5,3.1,0,3.5c0,0,0.6,5.3,3.7,10.4c0,0,3.2,7.2,5.7,10.8
			c0,0,3.4,2.9,3.5,6c0,0,4.5,10.4,6.4,17.7c0,0,3.1,0.5,7.1-2.7c0,0,1.3-5.3,7.6-6.9c0,0,5.2-0.9,6.2-4.7c0,0-2.5-0.8-3.5-1.8
			c0,0-1-0.7-0.2-1.9l1.2-1.6c0,0-1.6-1,0.9-2c0,0,1.7-1.7,2.4-2.8c0,0,0.7-2.5,2.5-2.9c0,0,6.1-2.5,9,3.3c0,0,1,1.8,0.5,5l0.5,0.7
			c0,0,3.1-0.4,2.3,5.8c0,0-1.1,5,0.1,8.5c0,0,2,4.5,0,7.1c0,0,0.5-4.1-1.3-6.2c0,0-4.3-6.1-2.9-11.6c0,0,0.3-1.2-0.5-1.5
			c0,0-1.8,2.8-5.1,2.8c0,0-1.5,1.9-0.4,3.6c0,0,3.5,4.2,1.2,13.7l-0.3,4c-0.1,0.7,0,1.4,0.2,2c0.2,0.7,0.3,1.6,0.2,2.2
			c0,0,1.7,8.1,2.8,13.9c0,0,0.2,1.8,2.8,2.3c9-9.2,14.6-21.8,14.6-35.6c0-28.1-22.8-50.8-50.8-50.8c-5.4,0-10.6,0.8-15.4,2.4
			C196.9-21.9,196.7-21.2,196.2-20.1z"/>
		<path class="st0" d="M223.9,48.7c5.3-5.8,13.2-10.7,13.2-10.7l1,6.2c-0.1,1.4,1.4,4.4,1.4,4.4l2.6,9.3c0.2,0.6,0.3,1.1,0.4,1.6
			c0.1,0.7,0.2,1.3,0.1,2c-0.1,0.6-0.2,1.1,0,1.5c0.4,0.7,1.2,1.2,2,1.2l1.3,0.1c-8.9,7.9-20.7,12.6-33.5,12.6
			c-14.5,0-27.5-6.1-36.8-15.8c0.4-0.1,0.7-0.1,0.7-0.1c3.4-0.4,6.2,0,6.2,0c6,0,4.5-2.2,4.5-2.2c-0.7-1-0.6-2.5-0.6-2.5
			c0-2.1-1-2.3-1-2.3c-0.7-4.4,0-7.9,0-7.9c1.6-4.3,0.7-10.9,0.7-10.9c3,2.5,12,8.6,12,8.6c3.6,4.9,11.6,7,11.6,7
			c2.8,2.8,5.5,2.7,7.5,2.4c1.3-0.2,3.3-1.4,3.3-1.4L223.9,48.7z"/>
		<path class="st0" d="M176.3,55.7l1-1.5c0,0,0.6-2.4,2.5-1.5c0,0,0.9-3.4-0.1-11.5c0,0-1.2-8.4-0.8-12.3c0,0,0.5-5.9,5.5-4.4
			c0,0,10.9,2.5,18.3,7.1c0,0-0.9-9.7-0.5-13.1c0,0,0.1-2.7-2-4.1c0,0-5.5-5.9-6.6-16.8c0,0-0.5-5.2-4.1-6.4c0,0-2.8,0-4.3-1.6
			c0,0-1.2-1.2,2.9-4.7c0,0,1.7-1.8,2.4-4.5c0,0,0.1-0.2,0.2-0.4c-17.2,8.1-29.2,25.7-29.2,46c0,11.8,4,22.6,10.7,31.2
			C173.7,57,175.8,56.5,176.3,55.7z"/>
	</g>
	<g>
		<path class="st0" d="M317.5,53.1c0.4,0.7,0.3,1.2-0.6,1.3c-1.4,0.2-3,0.6-4.8,1.3c-1.6,7.5-2.9,15-3.4,20.9
			c-0.1,0.9-0.8,1.2-1.4,0.8c-1.9-1.4-3.7-3.2-3.5-8.7c0.1-2.5,0.5-6,1.2-10c-4.3,2-8.7,4.3-12,6.3c-1.2,0.7-2.1,1-3.2,0.3
			c-1.6-1-3.5-2.7-4.6-3.7c-0.8-0.7-1-1.8-0.5-2.7c4.6-10.4,17.3-28.6,26.2-39c0.8-1,2.2-1.9,3.5-0.9s2.2,1.8,3.7,3
			c1.6,1.5,1.8,1.9,0.9,5c-1.6,5.4-3.8,14.3-5.9,23.6C315.3,50.9,316.7,51.9,317.5,53.1z M289.5,60.2c4.9-3.1,11.2-6.3,16.7-8.4
			c1.6-8.2,3.7-17.4,6-24.5C304.2,37.2,294.6,50,289.5,60.2z"/>
	</g>
	<path class="st0" d="M275-34.4c0,0-3.4,100.2,0.7,118.6C276,39.5,275-34.4,275-34.4z"/>
</g>
</svg>
