<?xml version="1.0" encoding="utf-8"?>
<!-- Generator: Adobe Illustrator 19.1.0, SVG Export Plug-In . SVG Version: 6.00 Build 0)  -->
<svg version="1.1" id="Layer_1" xmlns="http://www.w3.org/2000/svg" xmlns:xlink="http://www.w3.org/1999/xlink" x="0px" y="0px"
	 viewBox="0 0 351 127" style="enable-background:new 0 0 351 127;" xml:space="preserve">
<style type="text/css">
	.st0{fill:#C227B9;}
	.st1{fill:#9BE7D8;}
</style>
<g>
	<g>
		<path class="st0" d="M163.4,23.3c2.8,0,5,0.8,6.8,2.4c1.7,1.6,2.6,3.7,2.6,6.2c0,2.6-0.9,4.6-2.6,6.2c-1.8,1.6-4.1,2.4-6.9,2.4
			h-5.5v12.4h-5.7V23.3H163.4z M162,36c1.5,0,2.7-0.3,3.6-1c0.9-0.7,1.3-1.7,1.3-3.1c0-2.7-1.8-4.1-5.3-4.1h-3.9V36H162z"/>
		<path class="st0" d="M185.9,22.9c2.9,0,5.7,0.7,8.3,2.2v5.1c-3.1-1.9-5.8-2.8-8.2-2.8c-1.4,0-2.6,0.3-3.4,0.8
			c-0.8,0.6-1.2,1.3-1.2,2.2c0,1.1,0.8,2.1,2.3,3.1c0.4,0.3,2.1,1.1,4.9,2.4c2.4,1.1,4.2,2.4,5.3,3.8c1.1,1.4,1.6,3.1,1.6,5
			c0,2.5-0.9,4.6-2.7,6.2c-1.8,1.6-4.2,2.3-7.1,2.3c-1.9,0-3.5-0.2-4.9-0.6c-1.4-0.4-2.9-1.1-4.6-2.2v-5.6c3.2,2.6,6.1,3.9,8.9,3.9
			c1.4,0,2.5-0.3,3.4-0.9c0.9-0.6,1.3-1.4,1.3-2.4c0-1.4-0.7-2.5-2.2-3.3c-1.2-0.7-2.8-1.5-4.8-2.4c-2.3-1.1-4.1-2.3-5.2-3.7
			c-1.2-1.4-1.7-3.1-1.7-4.9c0-2.5,0.9-4.5,2.8-5.9C180.4,23.6,182.8,22.9,185.9,22.9z"/>
		<path class="st0" d="M202.6,23.3l7.2,9.9l7.3-9.9h6.8l-11.2,14.9v14.7h-5.7V38.2l-11.3-14.9H202.6z"/>
		<path class="st0" d="M240.7,22.9c1.7,0,3.3,0.2,4.9,0.6c1.6,0.4,3.4,1,5.2,2v5.4c-1.8-1-3.5-1.8-5.1-2.3c-1.5-0.5-3.2-0.7-4.8-0.7
			c-2.1,0-4,0.4-5.7,1.3c-1.7,0.9-3,2.1-4,3.7c-0.9,1.6-1.4,3.3-1.4,5.3c0,2,0.5,3.8,1.4,5.3s2.2,2.8,3.9,3.6
			c1.7,0.9,3.6,1.3,5.7,1.3c1.6,0,3.2-0.2,4.7-0.7s3.3-1.3,5.6-2.5v5.4c-1.9,1-3.7,1.7-5.3,2.1c-1.6,0.4-3.5,0.6-5.6,0.6
			c-3.1,0-5.9-0.6-8.4-1.9c-2.5-1.2-4.4-3-5.8-5.4c-1.4-2.3-2.1-4.9-2.1-7.7c0-3,0.7-5.7,2.2-8c1.4-2.4,3.4-4.2,6-5.5
			C234.6,23.6,237.5,22.9,240.7,22.9z"/>
		<path class="st0" d="M262.3,23.3v12.5h15.4V23.3h5.7v29.6h-5.7V40.4h-15.4v12.5h-5.7V23.3H262.3z"/>
		<path class="st0" d="M309.1,23.3v4.5h-13.4v7.8h12.8V40h-12.8v8.4h13.7v4.5H290V23.3H309.1z"/>
		<path class="st0" d="M327.2,23.3c3.1,0,5.8,0.6,8.2,1.9c2.4,1.3,4.3,3,5.6,5.3c1.3,2.3,2,4.8,2,7.7c0,2.9-0.7,5.5-2,7.7
			c-1.3,2.2-3.2,4-5.7,5.2c-2.5,1.2-5.3,1.8-8.5,1.8h-12.1V23.3H327.2z M326.6,48.4c3.2,0,5.7-1,7.6-2.9c1.9-1.9,2.9-4.4,2.9-7.5
			c0-3.2-1-5.7-2.9-7.6c-1.9-1.9-4.5-2.8-7.8-2.8h-5.9v20.7H326.6z"/>
		<path class="st1" d="M181.8,67.8v12.5h15.4V67.8h5.7v29.6h-5.7V84.9h-15.4v12.5h-5.7V67.8H181.8z"/>
		<path class="st1" d="M228.6,67.8v4.5h-13.4v7.8H228v4.5h-12.8V93h13.7v4.5h-19.4V67.8H228.6z"/>
		<path class="st1" d="M249.2,67.8l13.1,29.6h-6l-3.1-7.2H240l-2.9,7.2h-6l12.2-29.6H249.2z M241.8,85.9h9.6l-5-11.7L241.8,85.9z"/>
		<path class="st1" d="M271.5,67.8V93h14.4v4.5h-20.1V67.8H271.5z"/>
		<path class="st1" d="M310.5,67.8v4.5H300v25.1h-5.7V72.3h-10.5v-4.5H310.5z"/>
		<path class="st1" d="M320.5,67.8v12.5h15.4V67.8h5.7v29.6h-5.7V84.9h-15.4v12.5h-5.7V67.8H320.5z"/>
	</g>
	<g>
		<path class="st0" d="M45.2,17.9c0,0-1.2,3.1-0.2,5c0,0,1.5,3.1,0,3.5c0,0,0.6,5.3,3.7,10.4c0,0,3.2,7.2,5.7,10.8
			c0,0,3.4,2.9,3.5,6c0,0,4.5,10.4,6.4,17.7c0,0,3.1,0.5,7.1-2.7c0,0,1.3-5.3,7.6-6.9c0,0,5.2-0.9,6.2-4.7c0,0-2.5-0.8-3.5-1.8
			c0,0-1-0.7-0.2-1.9l1.2-1.6c0,0-1.6-1,0.9-2c0,0,1.7-1.7,2.4-2.8c0,0,0.7-2.5,2.5-2.9c0,0,6.1-2.5,9,3.3c0,0,1,1.8,0.5,5l0.5,0.7
			c0,0,3.1-0.4,2.3,5.8c0,0-1.1,5,0.1,8.5c0,0,2,4.5,0,7.1c0,0,0.5-4.1-1.3-6.2c0,0-4.3-6.1-2.9-11.6c0,0,0.3-1.2-0.5-1.5
			c0,0-1.8,2.8-5.1,2.8c0,0-1.5,1.9-0.4,3.6c0,0,3.5,4.2,1.2,13.7l-0.3,4c-0.1,0.7,0,1.4,0.2,2c0.2,0.7,0.3,1.6,0.2,2.2
			c0,0,1.7,8.1,2.8,13.9c0,0,0.2,1.8,2.8,2.3c9-9.2,14.6-21.8,14.6-35.6c0-28.1-22.8-50.8-50.8-50.8C56,13.2,50.8,14,46,15.6
			C45.9,16.1,45.7,16.8,45.2,17.9z"/>
		<path class="st1" d="M72.9,86.7C78.2,80.9,86.1,76,86.1,76l1,6.2c-0.1,1.4,1.4,4.4,1.4,4.4l2.6,9.3c0.2,0.6,0.3,1.1,0.4,1.6
			c0.1,0.7,0.2,1.3,0.1,2c-0.1,0.6-0.2,1.1,0,1.5c0.4,0.7,1.2,1.2,2,1.2l1.3,0.1c-8.9,7.9-20.7,12.6-33.5,12.6
			c-14.5,0-27.5-6.1-36.8-15.8c0.4-0.1,0.7-0.1,0.7-0.1c3.4-0.4,6.2,0,6.2,0c6,0,4.5-2.2,4.5-2.2c-0.7-1-0.6-2.5-0.6-2.5
			c0-2.1-1-2.3-1-2.3c-0.7-4.4,0-7.9,0-7.9c1.6-4.3,0.7-10.9,0.7-10.9c3,2.5,12,8.6,12,8.6c3.6,4.9,11.6,7,11.6,7
			c2.8,2.8,5.5,2.7,7.5,2.4c1.3-0.2,3.3-1.4,3.3-1.4L72.9,86.7z"/>
		<path class="st1" d="M25.3,93.7l1-1.5c0,0,0.6-2.4,2.5-1.5c0,0,0.9-3.4-0.1-11.5c0,0-1.2-8.4-0.8-12.3c0,0,0.5-5.9,5.5-4.4
			c0,0,10.9,2.5,18.3,7.1c0,0-0.9-9.7-0.5-13.1c0,0,0.1-2.7-2-4.1c0,0-5.5-5.9-6.6-16.8c0,0-0.5-5.2-4.1-6.4c0,0-2.8,0-4.3-1.6
			c0,0-1.2-1.2,2.9-4.7c0,0,1.7-1.8,2.4-4.5c0,0,0.1-0.2,0.2-0.4c-17.2,8.1-29.2,25.7-29.2,46c0,11.8,4,22.6,10.7,31.2
			C22.7,95,24.8,94.5,25.3,93.7z"/>
	</g>
	<g>
		<path class="st1" d="M166.5,91.1c0.4,0.7,0.3,1.2-0.6,1.3c-1.4,0.2-3,0.6-4.8,1.3c-1.6,7.5-2.9,15-3.4,20.9
			c-0.1,0.9-0.8,1.2-1.4,0.8c-1.9-1.4-3.7-3.2-3.5-8.7c0.1-2.5,0.5-6,1.2-10c-4.3,2-8.7,4.3-12,6.3c-1.2,0.7-2.1,1-3.2,0.3
			c-1.6-1-3.5-2.7-4.6-3.7c-0.8-0.7-1-1.8-0.5-2.7c4.6-10.4,17.3-28.6,26.2-39c0.8-1,2.2-1.9,3.5-0.9c1.3,1,2.2,1.8,3.7,3
			c1.6,1.5,1.8,1.9,0.9,5c-1.6,5.4-3.8,14.3-5.9,23.6C164.3,88.9,165.7,89.9,166.5,91.1z M138.5,98.2c4.9-3.1,11.2-6.3,16.7-8.4
			c1.6-8.2,3.7-17.4,6-24.5C153.2,75.2,143.6,88,138.5,98.2z"/>
	</g>
	<path class="st1" d="M124,3.6c0,0-3.4,100.2,0.7,118.6C125,77.5,124,3.6,124,3.6z"/>
</g>
</svg>
