<?xml version="1.0" encoding="utf-8"?>
<!-- Generator: Adobe Illustrator 19.1.0, SVG Export Plug-In . SVG Version: 6.00 Build 0)  -->
<svg version="1.1" xmlns="http://www.w3.org/2000/svg" xmlns:xlink="http://www.w3.org/1999/xlink" x="0px" y="0px"
	 viewBox="0 0 50 50" style="enable-background:new 0 0 50 50;" xml:space="preserve">
<style type="text/css">
	.st0{display:none;}
	.st1{display:inline;}
	.st2{fill:#3B5998;}
	.st3{fill:#FFFFFF;}
	.st4{fill:#DC4E41;}
	.st5{fill:#C227B9;}
	.st6{fill:#55ACEE;}
	.st7{fill:#F1F2F2;}
</style>
<g id="Layer_1" class="st0">
	<g class="st1">
		<path class="st2" d="M49,25.3c0,13.2-10.7,23.9-23.9,23.9S1.2,38.5,1.2,25.3c0-13.2,10.7-23.9,23.9-23.9S49,12.1,49,25.3L49,25.3z
			 M49,25.3"/>
		<path class="st3" d="M31.1,26.2h-4.3v15.6h-6.5V26.2h-3.1v-5.5h3.1v-3.6c0-2.5,1.2-6.5,6.5-6.5l4.8,0V16h-3.5
			c-0.6,0-1.4,0.3-1.4,1.5v3.2h4.8L31.1,26.2z M31.1,26.2"/>
	</g>
</g>
<g id="Layer_2" class="st0">
	<g class="st1">
		<path class="st4" d="M49,25.3c0,13.2-10.7,23.9-23.9,23.9S1.1,38.5,1.1,25.3C1.1,12,11.9,1.3,25.1,1.3S49,12,49,25.3L49,25.3z
			 M49,25.3"/>
		<path class="st4" d="M9.5,26.3c-0.1,4.1,2.8,8,6.7,9.3c3.7,1.2,8.2,0.3,10.6-2.8c1.8-2.2,2.2-5.1,2-7.9c-3.1,0-6.3,0-9.4,0
			c0,1.1,0,2.2,0,3.4c1.9,0.1,3.8,0,5.7,0.1c-0.5,1.6-1.6,3.1-3.2,3.7c-3.2,1.4-7.2-0.4-8.2-3.8c-1.2-3.2,0.8-7,4-8
			c2-0.7,4.1,0.1,5.8,1.1c0.9-0.8,1.7-1.7,2.5-2.6c-2-1.6-4.5-2.7-7.1-2.4C13.7,16.5,9.3,21.2,9.5,26.3L9.5,26.3z M9.5,26.3"/>
		<path class="st4" d="M34.9,22.1c0,0.9,0,1.9,0,2.8c-0.9,0-1.9,0-2.8,0v2.8c0.9,0,1.9,0,2.8,0c0,0.9,0,1.9,0,2.8c0.9,0,1.9,0,2.8,0
			c0-0.9,0-1.9,0-2.8c0.9,0,1.9,0,2.8,0v-2.8c-0.9,0-1.9,0-2.8,0c0-0.9,0-1.9,0-2.8C36.8,22.1,35.8,22.1,34.9,22.1L34.9,22.1z
			 M34.9,22.1"/>
		<path class="st3" d="M9.5,26.3c-0.2-5.1,4.3-9.8,9.4-9.9c2.6-0.2,5.1,0.8,7.1,2.4c-0.8,0.9-1.6,1.8-2.5,2.6
			c-1.7-1.1-3.8-1.9-5.8-1.1c-3.3,0.9-5.2,4.8-4,8c1,3.3,5.1,5.2,8.2,3.8c1.6-0.6,2.7-2.1,3.2-3.7c-1.9,0-3.8,0-5.7-0.1
			c0-1.1,0-2.2,0-3.4c3.1,0,6.3,0,9.4,0c0.2,2.7-0.2,5.7-2,7.9c-2.4,3.1-7,4.1-10.6,2.8C12.2,34.4,9.4,30.5,9.5,26.3L9.5,26.3z
			 M9.5,26.3"/>
		<path class="st3" d="M34.9,22.1h2.8c0,0.9,0,1.9,0,2.8c0.9,0,1.9,0,2.8,0v2.8c-0.9,0-1.9,0-2.8,0c0,0.9,0,1.9,0,2.8
			c-0.9,0-1.9,0-2.8,0c0-0.9,0-1.9,0-2.8c-0.9,0-1.9,0-2.8,0v-2.8c0.9,0,1.9,0,2.8,0C34.9,24,34.9,23,34.9,22.1L34.9,22.1z
			 M34.9,22.1"/>
	</g>
</g>
<g id="Layer_5" class="st0">
	<g class="st1">
		<path class="st5" d="M32.4,14H18.1c-2.3,0-4.1,1.9-4.1,4.1v14.3c0,2.3,1.9,4.1,4.1,4.1h14.3c2.3,0,4.1-1.9,4.1-4.1V18.2
			C36.6,15.9,34.7,14,32.4,14L32.4,14z M25.3,32.8c-4.1,0-7.4-3.3-7.4-7.4c0-4.1,3.3-7.4,7.4-7.4c4.1,0,7.4,3.3,7.4,7.4
			C32.7,29.4,29.4,32.8,25.3,32.8L25.3,32.8z M33,19.4c-1,0-1.8-0.8-1.8-1.8c0-1,0.8-1.8,1.8-1.8c1,0,1.8,0.8,1.8,1.8
			C34.7,18.6,33.9,19.4,33,19.4L33,19.4z M33,19.4"/>
		<path class="st5" d="M25.3,21C22.9,21,21,23,21,25.3c0,2.4,1.9,4.3,4.3,4.3c2.4,0,4.3-1.9,4.3-4.3C29.6,23,27.6,21,25.3,21
			L25.3,21z M25.3,21"/>
		<path class="st5" d="M25.3,1.2c-13.3,0-24,10.8-24,24c0,13.3,10.8,24,24,24s24-10.8,24-24C49.3,12,38.5,1.2,25.3,1.2L25.3,1.2z
			 M39.7,32.5c0,4-3.3,7.3-7.3,7.3H18.1c-4,0-7.3-3.3-7.3-7.3V18.2c0-4,3.3-7.3,7.3-7.3h14.3c4,0,7.3,3.3,7.3,7.3V32.5z M39.7,32.5"
			/>
	</g>
</g>
<g id="Layer_3">
	<g>
		<path class="st6" d="M49.1,25.1c0,13.2-10.7,24-24,24s-24-10.7-24-24c0-13.2,10.7-24,24-24S49.1,11.8,49.1,25.1L49.1,25.1z
			 M49.1,25.1"/>
		<path class="st7" d="M39.8,18.3c-1,0.5-2.1,0.8-3.3,0.9c1.2-0.7,2.1-1.8,2.5-3.2c-1.1,0.7-2.3,1.1-3.6,1.4c-1-1.1-2.5-1.8-4.2-1.8
			c-3.2,0-5.7,2.6-5.7,5.7c0,0.4,0,0.9,0.1,1.3c-4.8-0.2-9-2.5-11.8-6c-0.5,0.8-0.8,1.8-0.8,2.9c0,2,1,3.7,2.5,4.8
			c-0.9,0-1.8-0.3-2.6-0.7c0,0,0,0,0,0.1c0,2.8,2,5.1,4.6,5.6c-0.5,0.1-1,0.2-1.5,0.2c-0.4,0-0.7,0-1.1-0.1c0.7,2.3,2.8,3.9,5.4,4
			c-2,1.5-4.4,2.4-7.1,2.4c-0.5,0-0.9,0-1.4-0.1c2.5,1.6,5.5,2.6,8.8,2.6C31.2,38.3,37,29.6,37,22c0-0.2,0-0.5,0-0.7
			C38.1,20.5,39,19.5,39.8,18.3L39.8,18.3z M39.8,18.3"/>
	</g>
</g>
<g id="twitter">
</g>
</svg>
